<svg width="50" height="50" viewBox="0 0 50 50" fill="none" xmlns="http://www.w3.org/2000/svg">
<rect width="50" height="50" fill="#67BC9E"/>
<path d="M27.71 28.88L23.83 25L27.71 21.12C27.8026 21.0274 27.876 20.9175 27.9261 20.7965C27.9762 20.6756 28.002 20.5459 28.002 20.415C28.002 20.2841 27.9762 20.1544 27.9261 20.0334C27.876 19.9125 27.8026 19.8026 27.71 19.71C27.6174 19.6174 27.5075 19.544 27.3865 19.4939C27.2656 19.4438 27.1359 19.418 27.005 19.418C26.8741 19.418 26.7444 19.4438 26.6235 19.4939C26.5025 19.544 26.3926 19.6174 26.3 19.71L21.71 24.3C21.32 24.69 21.32 25.32 21.71 25.71L26.3 30.3C26.3925 30.3927 26.5024 30.4662 26.6234 30.5164C26.7443 30.5666 26.874 30.5924 27.005 30.5924C27.136 30.5924 27.2656 30.5666 27.3866 30.5164C27.5076 30.4662 27.6175 30.3927 27.71 30.3C28.09 29.91 28.1 29.27 27.71 28.88Z" fill="white"/>
</svg>
