<svg width="38" height="44" viewBox="0 0 38 44" fill="none" xmlns="http://www.w3.org/2000/svg">
<path d="M36.2771 4.17081C35.6016 3.02975 34.6617 2.06496 33.5353 1.35643C32.409 0.647903 31.1287 0.216056 29.8006 0.0966989C27.6797 -0.162649 25.5276 0.157218 23.5763 1.02184C21.625 1.88647 19.9483 3.26309 18.7269 5.0034C18.1303 4.80486 17.5858 4.47682 17.133 4.04315H17.0826L17.0379 4.0043C17.0212 4.00665 17.0042 4.00665 16.9875 4.0043C16.9542 3.9874 16.9183 3.97614 16.8813 3.97099L16.7638 3.89329H16.6632C16.6264 3.89658 16.5905 3.90596 16.5569 3.92104C16.5245 3.93015 16.4942 3.94521 16.4674 3.96544C16.4324 3.98252 16.4003 4.005 16.3723 4.03205C16.3723 4.03205 16.3723 4.03205 16.3332 4.06535C16.294 4.09866 16.3332 4.09866 16.3332 4.11531C16.3188 4.12683 16.3056 4.13985 16.294 4.15416L15.2594 5.95255L14.5547 4.40394L15.086 2.36688C15.1137 2.2565 15.1066 2.14033 15.0655 2.0341C15.0245 1.92787 14.9516 1.83671 14.8567 1.77297C13.0446 0.562946 11.7303 -0.297391 8.19565 0.0966989C6.86757 0.216056 5.58728 0.647903 4.46096 1.35643C3.33464 2.06496 2.39474 3.02975 1.71919 4.17081C0.276248 6.52981 -0.249475 9.72138 0.108464 13.5291C0.105663 13.5623 0.105663 13.5957 0.108464 13.629C0.108464 13.629 0.108464 13.6567 0.108464 13.6734C0.538241 17.2057 1.43717 20.666 2.78182 23.9641C8.40818 38.4345 10.3041 43.3023 13.2124 43.3023C13.3507 43.3031 13.4843 43.2531 13.5876 43.1619C13.6909 43.0707 13.7565 42.9447 13.7717 42.8083C14.3869 37.2577 16.3556 28.4434 19.0009 28.4434C21.6463 28.4434 23.6094 37.2522 24.2246 42.8083C24.2398 42.9447 24.3054 43.0707 24.4087 43.1619C24.512 43.2531 24.6456 43.3031 24.7839 43.3023C27.6922 43.3023 29.5881 38.4289 35.2201 23.9586C38.5198 15.4829 38.8945 8.45585 36.2771 4.17081ZM34.1742 23.5645C29.5713 35.3983 27.2783 41.2819 25.2705 42.0978C24.879 39.0173 23.1452 27.3389 19.0009 27.3389C14.8567 27.3389 13.1173 38.9951 12.7314 42.0978C10.718 41.2819 8.42496 35.3983 3.82208 23.5645C2.57846 20.4972 1.72367 17.2885 1.27736 14.012L9.26947 12.8186L12.9831 17.0315C13.0366 17.0904 13.1023 17.1372 13.1756 17.1688C13.2489 17.2004 13.3282 17.216 13.4081 17.2146C13.5422 17.2131 13.6712 17.1639 13.7717 17.0759C13.8836 16.9794 13.9524 16.8428 13.9629 16.6961C13.9733 16.5493 13.9247 16.4044 13.8276 16.2933L9.91264 11.8528C9.85091 11.7829 9.77247 11.7295 9.68453 11.6975C9.59658 11.6655 9.50194 11.6559 9.40929 11.6696L1.1711 12.9074C0.925013 9.57707 1.41718 6.80178 2.67556 4.74807C3.26595 3.75561 4.08543 2.91651 5.06653 2.29987C6.04763 1.68324 7.16227 1.3067 8.3187 1.20126C11.2549 0.873778 12.3511 1.46214 13.9115 2.47789L13.4081 4.32068C13.3663 4.43545 13.3663 4.56115 13.4081 4.67592L14.5267 7.17922L14.0178 8.06176C13.9559 8.16781 13.9311 8.2912 13.9473 8.41269C13.9635 8.53418 14.0197 8.64694 14.1072 8.73338L19.1408 13.7289C19.1929 13.7817 19.255 13.8239 19.3236 13.8529C19.3921 13.8819 19.4658 13.8972 19.5403 13.898C19.6148 13.8988 19.6888 13.885 19.7579 13.8574C19.8271 13.8298 19.8901 13.789 19.9433 13.7372C19.9966 13.6855 20.039 13.6238 20.0683 13.5558C20.0975 13.4877 20.113 13.4146 20.1137 13.3407C20.1145 13.2667 20.1006 13.1933 20.0728 13.1247C20.045 13.0561 20.0039 12.9936 19.9517 12.9407L15.2202 8.24493L16.8981 5.29758C17.4878 5.80089 18.2251 6.10253 19.0009 6.15792C19.0966 6.15543 19.1901 6.1286 19.2723 6.08001C19.3546 6.03142 19.4229 5.96268 19.4707 5.88039C20.5406 4.21096 22.0717 2.88217 23.8815 2.05252C25.6912 1.22287 27.7033 0.927366 29.6776 1.20126C30.834 1.3067 31.9487 1.68324 32.9298 2.29987C33.9109 2.91651 34.7304 3.75561 35.3207 4.74807C37.7536 8.72783 37.3509 15.4107 34.1742 23.5645Z" fill="#67BC9E"/>
</svg>
