<svg width="42" height="50" viewBox="0 0 42 50" fill="none" xmlns="http://www.w3.org/2000/svg">
<path d="M39.7246 22.5864H28.6728V14.9482H35.6171C35.9537 14.9482 36.2268 14.675 36.2268 14.3384V4.38659C36.2241 2.04562 34.3853 0.118299 32.0467 0.00516069V0H5.72235C2.99195 0.00317581 0.779598 2.21553 0.776423 4.94593V40.0406C0.776423 40.2749 0.910601 40.4888 1.12219 40.5905C1.33338 40.6917 1.58387 40.6631 1.76688 40.517L4.72118 38.1538L7.67548 40.517C7.89818 40.6953 8.21497 40.6953 8.43767 40.517L11.3916 38.1538L14.3451 40.517C14.5682 40.6953 14.8846 40.6953 15.1073 40.517L18.0612 38.1538L21.0147 40.517C21.2374 40.6953 21.5542 40.6953 21.7769 40.517L21.8396 40.4666V48.374C21.8404 49.2715 22.5681 49.9988 23.4656 50H39.7258C40.6234 49.9988 41.3506 49.2715 41.3518 48.374V24.2124C41.3506 23.3144 40.6226 22.5868 39.7246 22.5864ZM35.0073 4.38659V13.7286H28.6728V4.38659C28.6827 2.64466 30.0979 1.23738 31.8398 1.23738C33.5822 1.23738 34.9974 2.64466 35.0073 4.38659ZM21.395 39.2598L18.4415 36.8966C18.2188 36.7184 17.902 36.7184 17.6793 36.8966L14.7258 39.2598L11.7719 36.8966C11.5492 36.7184 11.2328 36.7184 11.0097 36.8966L8.05658 39.2598L5.10228 36.8966C4.87918 36.7184 4.56279 36.7184 4.34008 36.8966L1.99554 38.7723V4.94593C1.99792 2.8888 3.66522 1.2215 5.72235 1.21951H28.8097C27.9431 2.04522 27.4529 3.18971 27.4533 4.38659V22.5864H23.4644C22.5669 22.5876 21.8396 23.3148 21.8384 24.2124V38.9049L21.395 39.2598ZM40.1311 48.374C40.1311 48.5987 39.9493 48.7805 39.7246 48.7805H23.4644C23.2397 48.7805 23.0579 48.5987 23.0579 48.374V24.2124C23.0579 23.9877 23.2397 23.8059 23.4644 23.8059H39.7246C39.9493 23.8059 40.1311 23.9877 40.1311 24.2124V48.374Z" fill="white"/>
</svg>
