<svg width="14" height="14" viewBox="0 0 14 14" fill="none" xmlns="http://www.w3.org/2000/svg">
<path d="M12.0627 9.74402C11.2169 9.02066 10.3586 8.5825 9.52326 9.30476L9.02446 9.74129C8.6595 10.0582 7.98094 11.5387 5.35741 8.52076C2.73443 5.50659 4.29532 5.03729 4.66083 4.72314L5.16237 4.28607C5.99335 3.56216 5.67975 2.65087 5.08042 1.7128L4.71874 1.1446C4.11667 0.208721 3.46106 -0.405913 2.62789 0.316896L2.1777 0.710262C1.80947 0.978516 0.780163 1.85048 0.530485 3.50698C0.229997 5.49457 1.1779 7.77063 3.34961 10.268C5.51858 12.7664 7.64221 14.0213 9.65384 13.9995C11.3256 13.9814 12.3353 13.0843 12.6511 12.7582L13.1029 12.3643C13.9339 11.642 13.4176 10.9066 12.5713 10.1816L12.0627 9.74402Z" fill="#67BC9E"/>
</svg>
